<svg width="68" height="57" viewBox="0 0 68 57" fill="none" xmlns="http://www.w3.org/2000/svg">
<path d="M62.829 0.919679L3.82844 23.6763C-0.198443 25.292 -0.17456 27.538 3.09445 28.5395L17.8094 33.1323L23.4396 50.3943C24.1241 52.2836 23.7867 53.033 25.7707 53.033C27.3018 53.033 27.981 52.3349 28.8337 51.5019C29.376 50.9712 32.5957 47.8409 36.1907 44.3456L51.497 55.6545C54.3136 57.2084 56.3473 56.4034 57.0486 53.0387L67.096 5.69151C68.1247 1.56735 65.5237 -0.303349 62.829 0.919679ZM20.1187 32.0771L53.2862 11.1515C54.942 10.1474 56.4601 10.6873 55.2136 11.7937L26.8136 37.4178L25.7078 49.212L20.1187 32.0771V32.0771Z" fill="#EEB519"/>
</svg>
